<svg aria-hidden="true" style="position: absolute; width: 0; height: 0; overflow: hidden;" version="1.1" xmlns="http://www.w3.org/2000/svg" xmlns:xlink="http://www.w3.org/1999/xlink">
<defs>
<symbol id="icon-book" viewBox="0 0 32 32">
<title>book</title>
<path d="M16.005 4.611l-12.472 6.726 12.472 6.726 12.472-6.726zM16.005 20.233l-10.154-5.475-2.319 1.251 12.472 6.72 12.472-6.72-2.319-1.251zM16.005 24.899l-10.154-5.475-2.319 1.251 12.472 6.726 12.472-6.726-2.319-1.251z"></path>
</symbol>
<symbol id="icon-cog" viewBox="0 0 32 32">
<title>cog</title>
<path d="M28.666 16.003c-0.027-1.003-0.637-1.858-1.502-2.239l-0.016-0.006c-1.206-0.283-2.089-1.349-2.089-2.622 0-0.531 0.154-1.027 0.42-1.444l-0.006 0.011c0.123-0.28 0.194-0.607 0.194-0.95 0-1.337-1.084-2.421-2.421-2.421-0.343 0-0.67 0.071-0.966 0.2l0.016-0.006c-0.439 0.213-0.955 0.338-1.501 0.338-0.342 0-0.673-0.049-0.985-0.14l0.025 0.006c-0.741-0.414-1.304-1.071-1.587-1.861l-0.008-0.024c-0.371-0.895-1.238-1.512-2.249-1.512s-1.877 0.618-2.243 1.496l-0.006 0.016c-0.285 1.207-1.353 2.091-2.627 2.091-0.529 0-1.023-0.152-1.439-0.416l0.011 0.007c-0.28-0.123-0.607-0.194-0.95-0.194-1.337 0-2.421 1.084-2.421 2.421 0 0.343 0.071 0.67 0.2 0.966l-0.006-0.016c0.257 0.405 0.409 0.899 0.409 1.428 0 1.272-0.881 2.339-2.067 2.623l-0.018 0.004c-0.898 0.367-1.519 1.234-1.519 2.246s0.621 1.879 1.503 2.24l0.016 0.006c1.206 0.283 2.089 1.349 2.089 2.622 0 0.532-0.154 1.027-0.42 1.444l0.006-0.011c-0.123 0.28-0.194 0.607-0.194 0.95 0 1.337 1.084 2.421 2.421 2.421 0.343 0 0.67-0.071 0.966-0.2l-0.016 0.006c0.405-0.257 0.899-0.409 1.428-0.409 1.274 0 2.342 0.884 2.624 2.072l0.004 0.018c0.371 0.895 1.238 1.512 2.249 1.512s1.877-0.618 2.243-1.496l0.006-0.016c0.283-1.207 1.351-2.093 2.625-2.093 0.53 0 1.025 0.153 1.441 0.418l-0.011-0.006c0.28 0.123 0.607 0.194 0.95 0.194 1.337 0 2.421-1.084 2.421-2.421 0-0.343-0.071-0.67-0.2-0.966l0.006 0.016c-0.26-0.406-0.414-0.902-0.414-1.433 0-1.273 0.884-2.339 2.071-2.618l0.018-0.004c0.882-0.388 1.492-1.242 1.518-2.242l0-0.003zM15.988 20.652c-2.565-0.002-4.643-2.081-4.643-4.646 0-2.566 2.080-4.646 4.646-4.646s4.646 2.080 4.646 4.646c0 0.001 0 0.002 0 0.003v-0c0 0 0 0 0 0.001 0 2.564-2.078 4.642-4.642 4.642-0.002 0-0.005 0-0.007 0h0z"></path>
</symbol>
<symbol id="icon-paper-bag" viewBox="0 0 32 32">
<title>paper-bag</title>
<path d="M5.999 13.146c0.653-1.217 1.894-2.043 3.332-2.1l0.008-0h15.249v-0.966c-0.001-0.793-0.64-1.436-1.431-1.443h-6.296v-0.838c0-0.004 0-0.009 0-0.013 0-1.186-0.957-2.148-2.14-2.157h-3.66c-1.188 0.011-2.147 0.976-2.147 2.165 0 0.002 0 0.003 0 0.005v-0 0.838h-6.289c-0.792 0.005-1.431 0.648-1.431 1.44 0 0.001 0 0.002 0 0.003v-0 12.899zM10.345 7.799c0.001-0.199 0.080-0.38 0.21-0.512l-0 0c0.125-0.129 0.301-0.21 0.495-0.21 0.004 0 0.008 0 0.012 0h3.659c0.395 0 0.716 0.321 0.716 0.716 0 0.002 0 0.004-0 0.006v-0 0.838h-5.091v-0.838zM25.152 25.079c-0.415 0.739-1.173 1.241-2.053 1.291l-0.007 0h-20.538c-0.037 0.006-0.080 0.009-0.124 0.009-0.455 0-0.824-0.369-0.824-0.824 0-0.179 0.057-0.344 0.153-0.479l-0.002 0.003 5.521-11.299c0.416-0.738 1.174-1.24 2.053-1.291l0.007-0h20.538c0.037-0.006 0.081-0.009 0.124-0.009 0.455 0 0.824 0.369 0.824 0.824 0 0.179-0.057 0.344-0.153 0.479l0.002-0.002z"></path>
</symbol>
<symbol id="icon-pencil" viewBox="0 0 32 32">
<title>pencil</title>
<path d="M29.58 11.808c-0.167-0.167-0.399-0.271-0.654-0.271s-0.486 0.103-0.654 0.271v0l-8.056 8.052-11.326 4.992-1.745-1.745 4.99-11.328 8.055-8.052c0.168-0.167 0.271-0.399 0.271-0.655 0-0.511-0.414-0.925-0.925-0.925-0.255 0-0.487 0.103-0.654 0.271l-8.301 8.297-8.423 19.124 19.123-8.419 8.3-8.303c0.168-0.168 0.271-0.399 0.271-0.655s-0.103-0.487-0.271-0.654l0 0zM17.843 18.208c0.168 0.165 0.4 0.268 0.655 0.268s0.486-0.102 0.655-0.268l7.757-7.761c0.166-0.167 0.269-0.398 0.269-0.652 0-0.511-0.414-0.926-0.926-0.926-0.254 0-0.485 0.103-0.652 0.269l-7.754 7.761c-0.167 0.168-0.271 0.399-0.271 0.655s0.103 0.487 0.271 0.655l-0-0zM15.818 16.183c0.168 0.165 0.4 0.268 0.655 0.268s0.486-0.102 0.655-0.268l7.757-7.761c0.166-0.167 0.269-0.398 0.269-0.652 0-0.511-0.414-0.926-0.926-0.926-0.254 0-0.485 0.103-0.652 0.269l-7.757 7.756c-0.168 0.168-0.272 0.401-0.272 0.657s0.104 0.489 0.272 0.657l-0-0zM13.793 14.153c0.167 0.169 0.399 0.274 0.655 0.274s0.488-0.105 0.654-0.273l7.757-7.756c0.166-0.167 0.269-0.398 0.269-0.652 0-0.511-0.414-0.926-0.926-0.926-0.254 0-0.485 0.103-0.652 0.269l-7.757 7.756c-0.167 0.168-0.271 0.399-0.271 0.655s0.103 0.487 0.271 0.655l-0-0z"></path>
</symbol>
</defs>
</svg>
